<svg width="765" height="720" viewBox="0 0 765 720" fill="none" xmlns="http://www.w3.org/2000/svg">
<path fill-rule="evenodd" clip-rule="evenodd" d="M396.814 1.11264C480.846 -6.54525 567.571 25.8553 629.668 81.9936C688.419 135.108 697.546 218.385 720.305 293.565C742.379 366.483 778.136 438.773 760.067 512.748C741.26 589.744 691.809 662.053 621.038 699.961C553.735 736.01 473.198 713.69 396.814 707.315C327.752 701.552 259.063 698.105 198.662 664.712C132.344 628.048 72.8234 578.239 40.7369 510.457C5.93477 436.939 -15.6968 350.279 14.0071 274.633C43.2082 200.267 127.749 168.64 193.369 121.754C259.035 74.8342 315.96 8.48092 396.814 1.11264Z" fill="url(#paint0_linear_117_286)"/>
<defs>
<linearGradient id="paint0_linear_117_286" x1="81.4105" y1="598.538" x2="673.168" y2="91.1334" gradientUnits="userSpaceOnUse">
<stop stop-color="#0057FF"/>
<stop offset="1" stop-color="#00DBDE"/>
</linearGradient>
</defs>
</svg>
